<svg width="554" height="458" viewBox="0 0 554 458" fill="none" xmlns="http://www.w3.org/2000/svg">
<path d="M281.366 159.737C281.361 161.495 280.683 163.149 279.432 164.4C278.19 165.642 276.532 166.325 274.778 166.325C273.015 166.325 271.361 165.638 270.119 164.396C268.872 163.149 268.185 161.495 268.19 159.737C268.185 157.978 268.873 156.324 270.114 155.083C271.361 153.836 273.015 153.149 274.778 153.149C278.409 153.149 281.361 156.101 281.366 159.737ZM274.773 144.679C270.754 144.679 266.972 146.243 264.124 149.092C261.285 151.931 259.72 155.713 259.716 159.737C259.716 163.756 261.284 167.543 264.128 170.387C266.972 173.23 270.754 174.794 274.773 174.794C278.802 174.794 282.579 173.225 285.418 170.386C288.267 167.538 289.835 163.761 289.831 159.737C289.836 155.713 288.271 151.931 285.428 149.087C282.584 146.243 278.797 144.674 274.773 144.679Z" fill="url(#paint0_linear_17_243)"/>
<path d="M257.311 291.092C256.542 291.86 255.483 292.329 254.308 292.334C251.976 292.334 250.077 290.435 250.073 288.098L250.073 253.463C250.077 251.126 251.976 249.227 254.308 249.227C256.649 249.227 258.548 251.126 258.544 253.463L258.544 288.098C258.544 289.269 258.075 290.328 257.311 291.092Z" fill="white"/>
<path d="M277.774 303.823C277.005 304.592 275.947 305.064 274.78 305.059C272.438 305.059 270.541 303.163 270.545 300.824L270.541 264.727C270.541 262.384 272.433 260.492 274.776 260.492C277.114 260.487 279.011 262.384 279.011 264.727L279.016 300.824C279.011 302 278.544 303.053 277.774 303.823Z" fill="white"/>
<path d="M298.237 291.097C297.472 291.861 296.409 292.334 295.245 292.334C292.904 292.339 291.006 290.441 291.006 288.096L291.007 253.46C291.007 251.124 292.9 249.231 295.241 249.226C297.581 249.222 299.479 251.12 299.479 253.465L299.479 288.1C299.479 289.264 299.005 290.328 298.237 291.097Z" fill="white"/>
<path d="M284.782 121.866C290.862 135.508 298.111 156.697 298.111 180.175C298.111 190.974 296.619 202.073 293.68 213.327C293.611 213.523 293.557 213.714 293.523 213.914C291.929 219.921 289.913 225.976 287.487 232.061L279.011 232.056L279.016 214.951C279.011 212.608 277.118 210.716 274.78 210.716C272.432 210.716 270.539 212.608 270.544 214.951L270.539 232.056L262.063 232.061C259.641 225.971 257.626 219.916 256.032 213.909C255.993 213.714 255.939 213.523 255.875 213.332C252.931 202.073 251.439 190.974 251.444 180.17C251.444 156.701 258.688 135.508 264.767 121.866C268.46 113.575 272.183 106.987 274.775 102.751C277.367 106.987 281.09 113.575 284.782 121.866V121.866ZM317.04 210.138L317.089 235.866L302.278 213.895C303.985 207.062 305.189 200.283 305.883 193.581L317.04 210.138ZM232.466 235.861L232.51 210.138L243.672 193.577C244.361 200.282 245.564 207.062 247.271 213.895L232.466 235.861ZM274.78 90.7528C273.42 90.7528 272.139 91.4082 271.341 92.5088C271.048 92.9099 264.112 102.575 257.127 118.207C253.019 127.383 249.756 136.721 247.408 145.975C244.527 157.337 243.036 168.592 242.977 179.451L224.767 206.475C224.297 207.169 224.043 207.991 224.038 208.837L223.974 249.753C223.97 251.616 225.187 253.264 226.973 253.807C228.484 254.272 230.113 253.846 231.204 252.756C231.394 252.565 231.566 252.355 231.722 252.13L250.333 224.509C251.781 228.97 253.439 233.445 255.308 237.925C255.968 239.505 257.509 240.528 259.216 240.533L270.539 240.528L270.539 251.054C270.539 253.392 272.437 255.289 274.775 255.289C275.944 255.285 277.005 254.81 277.768 254.047C278.536 253.279 279.011 252.218 279.011 251.054L279.011 240.528L290.334 240.533C291.479 240.533 292.55 240.068 293.332 239.285C293.714 238.904 294.027 238.444 294.247 237.921C296.111 233.445 297.769 228.97 299.217 224.519L317.833 252.125C318.874 253.675 320.806 254.355 322.587 253.807C323.262 253.602 323.859 253.23 324.338 252.751C325.111 251.978 325.58 250.912 325.575 249.753L325.512 208.837C325.512 207.996 325.257 207.174 324.793 206.475L306.578 179.456C306.514 168.592 305.027 157.332 302.141 145.975C299.794 136.721 296.526 127.378 292.432 118.207C285.438 102.575 278.497 92.9148 278.209 92.5088C277.411 91.4083 276.13 90.7529 274.78 90.7528" fill="url(#paint1_linear_17_243)"/>
<path d="M404 187L422 205M422 187L404 205" stroke="white" stroke-width="8"/>
<path d="M422 100L440 118M440 100L422 118" stroke="white" stroke-width="8"/>
<path d="M319 32L337 50M337 32L319 50" stroke="white" stroke-width="8"/>
<path d="M395 12L413 30M413 12L395 30" stroke="white" stroke-width="8"/>
<path d="M213 3L231 21M231 3L213 21" stroke="white" stroke-width="8"/>
<path d="M168 138L186 156M186 138L168 156" stroke="white" stroke-width="8"/>
<path d="M90 221L108 239M108 221L90 239" stroke="white" stroke-width="8"/>
<path d="M108 62L126 80M126 62L108 80" stroke="white" stroke-width="8"/>
<path d="M101 278.197C119.167 274.864 157.2 276.497 164 309.697M132.5 322.959C145 310.459 177.5 294.959 196.5 337.959H234" stroke="white" stroke-width="8"/>
<path d="M422 284.08C405.609 281.072 371.293 282.546 365.158 312.501M393.579 324.466C382.301 313.188 352.977 299.203 335.835 338H302" stroke="white" stroke-width="8"/>
<path d="M552 442C452.295 385.403 202.909 306.168 3 442" stroke="white" stroke-width="8"/>
<path d="M25 392.174L46.9401 456M63.5289 368.051L85.469 431.877M443.467 358L410.289 416.297M489.488 373.579L456.31 431.877M543 392.174L509.822 450.472" stroke="#D15650" stroke-width="8"/>
<defs>
<linearGradient id="paint0_linear_17_243" x1="266.187" y1="-136.906" x2="266.185" y2="-450.956" gradientUnits="userSpaceOnUse">
<stop stop-color="white"/>
<stop offset="1" stop-color="#29235C"/>
</linearGradient>
<linearGradient id="paint1_linear_17_243" x1="265.1" y1="-194.372" x2="265.1" y2="-518.476" gradientUnits="userSpaceOnUse">
<stop stop-color="white"/>
<stop offset="1" stop-color="#29235C"/>
</linearGradient>
</defs>
</svg>
