<svg width="294" height="106" viewBox="0 0 294 106" fill="none" xmlns="http://www.w3.org/2000/svg">
<path d="M55.5312 43.6641C55.0051 43.0532 54.404 42.5036 53.7288 42.0394C52.1494 40.9509 50.2971 40.3747 48.3728 40.3747C43.1638 40.3747 38.926 44.6112 38.926 49.8215C38.926 52.54 40.0921 55.0638 42.0377 56.8246C38.5941 58.3799 34.7748 59.247 30.757 59.247C15.5989 59.247 3.26704 46.9162 3.26704 31.7575C3.26704 21.8225 8.56351 13.104 16.4809 8.27251C17.059 9.64911 17.9525 10.887 19.1026 11.8741C20.8529 13.3761 23.088 14.2058 25.3971 14.2058C30.705 14.2058 35.0256 9.90522 35.0627 4.60422C48.1823 6.67714 58.2465 18.0635 58.2465 31.7575C58.2465 36.0208 57.2706 40.0599 55.5312 43.6641ZM45.2111 55.1305C43.3559 54.0233 42.1927 52.0198 42.1927 49.8215C42.1927 46.4147 44.9652 43.6428 48.3728 43.6428C50.6397 43.6428 52.6739 44.8566 53.7584 46.7935C51.5529 50.155 48.631 53.0069 45.2111 55.1305V55.1305ZM30.757 4.26809C31.1033 4.26809 31.4475 4.27608 31.7908 4.28942C31.794 4.37213 31.7978 4.45482 31.7978 4.53753C31.7978 8.06708 28.9264 10.9377 25.3971 10.9377C22.6497 10.9377 20.282 9.22761 19.3813 6.73318C22.8498 5.15115 26.7019 4.26809 30.757 4.26809V4.26809ZM59.0962 19.7842C57.547 16.1213 55.3295 12.8319 52.5056 10.0093C49.6811 7.18404 46.3919 4.96705 42.7292 3.41703C39.7453 2.15514 36.6148 1.38415 33.3937 1.11203C33.372 1.11203 33.3499 1.10936 33.328 1.10669C32.4767 1.03733 31.6195 0.999979 30.757 0.999979C26.6053 0.999979 22.5772 1.81366 18.7843 3.41703C15.1216 4.96705 11.8327 7.18404 9.00824 10.0093C6.18432 12.8319 3.96655 16.1213 2.4176 19.7842C0.813428 23.5779 0 27.6064 0 31.7575C0 35.9087 0.813428 39.9371 2.4176 43.7281C3.96655 47.3911 6.18432 50.6805 9.00824 53.5058C11.8327 56.3283 15.1216 58.5453 18.7843 60.0953C22.5772 61.6987 26.6053 62.5151 30.757 62.5151C34.9082 62.5151 38.9364 61.6987 42.7292 60.0953C46.3919 58.5453 49.6811 56.3283 52.5056 53.5058C55.3295 50.6805 57.547 47.3911 59.0962 43.7281C60.7004 39.9371 61.5138 35.9087 61.5138 31.7575C61.5138 27.6064 60.7004 23.5779 59.0962 19.7842Z" fill="white"/>
<path d="M21.0258 48.3885C18.684 48.3885 16.7785 46.483 16.7785 44.1415C16.7785 41.7999 18.684 39.8944 21.0258 39.8944C23.3673 39.8944 25.2723 41.7999 25.2723 44.1415C25.2723 46.483 23.3673 48.3885 21.0258 48.3885ZM21.0258 36.6271C16.8823 36.6271 13.5117 39.9973 13.5117 44.1415C13.5117 48.2832 16.8823 51.6558 21.0258 51.6558C25.1687 51.6558 28.5394 48.2832 28.5394 44.1415C28.5394 39.9973 25.1687 36.6271 21.0258 36.6271Z" fill="white"/>
<path d="M15.697 26.6902C14.5763 26.6902 13.6646 25.7806 13.6646 24.6588C13.6646 23.5371 14.5763 22.6274 15.697 22.6274C16.8177 22.6274 17.7294 23.5371 17.7294 24.6588C17.7294 25.7806 16.8177 26.6902 15.697 26.6902ZM15.697 19.3593C12.7751 19.3593 10.3977 21.7357 10.3977 24.6588C10.3977 27.582 12.7751 29.9583 15.697 29.9583C18.6191 29.9583 20.9965 27.582 20.9965 24.6588C20.9965 21.7357 18.6191 19.3593 15.697 19.3593Z" fill="white"/>
<path d="M41.7574 29.6105C39.0102 29.6105 36.7754 27.3767 36.7754 24.6282C36.7754 21.8823 39.0102 19.646 41.7574 19.646C44.5043 19.646 46.7391 21.8823 46.7391 24.6282C46.7391 27.3767 44.5043 29.6105 41.7574 29.6105ZM41.7574 16.3802C37.209 16.3802 33.5081 20.0809 33.5081 24.6282C33.5081 29.1781 37.209 32.8788 41.7574 32.8788C46.3058 32.8788 50.0064 29.1781 50.0064 24.6282C50.0064 20.0809 46.3058 16.3802 41.7574 16.3802" fill="white"/>
<path d="M287.531 86.6641C287.005 86.0532 286.404 85.5036 285.729 85.0394C284.149 83.9509 282.297 83.3747 280.373 83.3747C275.164 83.3747 270.926 87.6112 270.926 92.8215C270.926 95.54 272.092 98.0638 274.038 99.8246C270.594 101.38 266.775 102.247 262.757 102.247C247.599 102.247 235.267 89.9162 235.267 74.7575C235.267 64.8225 240.564 56.104 248.481 51.2725C249.059 52.6491 249.952 53.887 251.103 54.8741C252.853 56.3761 255.088 57.2058 257.397 57.2058C262.705 57.2058 267.026 52.9052 267.063 47.6042C280.182 49.6771 290.246 61.0635 290.246 74.7575C290.246 79.0208 289.271 83.0599 287.531 86.6641ZM277.211 98.1305C275.356 97.0233 274.193 95.0198 274.193 92.8215C274.193 89.4147 276.965 86.6428 280.373 86.6428C282.64 86.6428 284.674 87.8566 285.758 89.7935C283.553 93.155 280.631 96.0069 277.211 98.1305V98.1305ZM262.757 47.2681C263.103 47.2681 263.447 47.2761 263.791 47.2894C263.794 47.3721 263.798 47.4548 263.798 47.5375C263.798 51.0671 260.926 53.9377 257.397 53.9377C254.65 53.9377 252.282 52.2276 251.381 49.7332C254.85 48.1512 258.702 47.2681 262.757 47.2681V47.2681ZM291.096 62.7842C289.547 59.1213 287.329 55.8319 284.506 53.0093C281.681 50.184 278.392 47.967 274.729 46.417C271.745 45.1551 268.615 44.3842 265.394 44.112C265.372 44.112 265.35 44.1094 265.328 44.1067C264.477 44.0373 263.62 44 262.757 44C258.605 44 254.577 44.8137 250.784 46.417C247.122 47.967 243.833 50.184 241.008 53.0093C238.184 55.8319 235.967 59.1213 234.418 62.7842C232.813 66.5779 232 70.6064 232 74.7575C232 78.9087 232.813 82.9371 234.418 86.7281C235.967 90.3911 238.184 93.6805 241.008 96.5058C243.833 99.3283 247.122 101.545 250.784 103.095C254.577 104.699 258.605 105.515 262.757 105.515C266.908 105.515 270.936 104.699 274.729 103.095C278.392 101.545 281.681 99.3283 284.506 96.5058C287.329 93.6805 289.547 90.3911 291.096 86.7281C292.7 82.9371 293.514 78.9087 293.514 74.7575C293.514 70.6064 292.7 66.5779 291.096 62.7842Z" fill="white"/>
<path d="M253.026 91.3885C250.684 91.3885 248.779 89.483 248.779 87.1415C248.779 84.7999 250.684 82.8944 253.026 82.8944C255.367 82.8944 257.272 84.7999 257.272 87.1415C257.272 89.483 255.367 91.3885 253.026 91.3885ZM253.026 79.6271C248.882 79.6271 245.512 82.9973 245.512 87.1415C245.512 91.2832 248.882 94.6558 253.026 94.6558C257.169 94.6558 260.539 91.2832 260.539 87.1415C260.539 82.9973 257.169 79.6271 253.026 79.6271Z" fill="white"/>
<path d="M247.697 69.6902C246.576 69.6902 245.665 68.7806 245.665 67.6588C245.665 66.5371 246.576 65.6274 247.697 65.6274C248.818 65.6274 249.729 66.5371 249.729 67.6588C249.729 68.7806 248.818 69.6902 247.697 69.6902ZM247.697 62.3593C244.775 62.3593 242.398 64.7357 242.398 67.6588C242.398 70.582 244.775 72.9583 247.697 72.9583C250.619 72.9583 252.996 70.582 252.996 67.6588C252.996 64.7357 250.619 62.3593 247.697 62.3593Z" fill="white"/>
<path d="M273.757 72.6105C271.01 72.6105 268.775 70.3767 268.775 67.6282C268.775 64.8823 271.01 62.646 273.757 62.646C276.504 62.646 278.739 64.8823 278.739 67.6282C278.739 70.3767 276.504 72.6105 273.757 72.6105ZM273.757 59.3802C269.209 59.3802 265.508 63.0809 265.508 67.6282C265.508 72.1781 269.209 75.8788 273.757 75.8788C278.306 75.8788 282.006 72.1781 282.006 67.6282C282.006 63.0809 278.306 59.3802 273.757 59.3802" fill="white"/>
<path d="M194.47 46.1389C194.421 46.1959 194.364 46.2569 194.307 46.322C193.965 34.0965 189.041 22.6523 180.36 13.9715C180.018 13.6337 179.68 13.3 179.334 12.9785C184.063 13.0192 188.312 13.5849 191.886 14.6634C197.302 16.2954 200.88 18.9651 202.516 22.5994C205.194 28.5616 202.259 37.1407 194.47 46.1389V46.1389ZM187.169 53.4441C179.188 60.4563 168.981 66.8825 157.549 72.0185C146.121 77.1546 134.543 80.5121 124.01 81.8185C112.969 74.4726 105.68 61.9255 105.68 47.7017C105.68 35.4151 111.121 24.3697 119.725 16.857C122.374 21.9279 127.697 25.3424 133.692 25.3424C142.377 25.3424 149.446 18.2814 149.446 9.59244C149.446 8.6686 149.365 7.74476 149.198 6.8372C170.584 8.17615 187.572 25.9895 187.572 47.7017C187.572 49.6511 187.429 51.568 187.169 53.4441V53.4441ZM146.626 88.6476C142.426 88.6476 138.372 88.0127 134.555 86.8325C142.951 84.9767 151.693 82.0627 160.316 78.1883C168.936 74.3139 176.921 69.7232 183.88 64.6808C177.418 78.811 163.149 88.6476 146.626 88.6476ZM113.673 82.429C101.773 82.2784 93.4176 78.7662 90.7356 72.804C89.1077 69.1697 89.4821 64.7255 91.8629 59.5854C93.4298 56.1994 95.8269 52.6505 98.9443 49.0854C99.2862 61.3069 104.211 72.7511 112.891 81.4359C113.229 81.7737 113.575 82.0993 113.917 82.429C113.84 82.429 113.754 82.429 113.673 82.429V82.429ZM142.3 6.98779C142.556 7.82616 142.686 8.70523 142.686 9.59244C142.686 14.5494 138.653 18.5826 133.692 18.5826C129.899 18.5826 126.578 16.1936 125.284 12.775C130.339 9.66977 136.118 7.63895 142.3 6.98779V6.98779ZM208.681 19.8279C206.244 14.411 201.108 10.386 193.831 8.18837C187.568 6.3 179.656 5.75466 170.894 6.60931C163.621 2.3035 155.302 1.20547e-06 146.626 1.20547e-06C133.883 1.20547e-06 121.906 4.96107 112.891 13.9715C106.079 20.7843 101.586 29.2901 99.7949 38.5407C93.3321 44.5273 88.481 50.8029 85.7298 56.7447C82.5391 63.643 82.1362 70.1546 84.5699 75.5714C88.428 84.1627 98.7327 88.9976 113.587 89.1848C113.889 89.1889 114.198 89.1929 114.503 89.1929C117.047 89.1929 119.672 89.0586 122.366 88.7982C129.63 93.108 137.953 95.4075 146.626 95.4075C159.364 95.4075 171.345 90.4464 180.36 81.4359C187.169 74.6272 191.666 66.1174 193.452 56.8627C195.683 54.8034 197.73 52.6994 199.581 50.5627C209.308 39.3343 212.536 28.4192 208.681 19.8279" fill="white"/>
<path d="M133.694 54.7423C130.563 54.7423 128.015 52.1946 128.015 49.0598C128.015 45.9291 130.563 43.3813 133.694 43.3813C136.828 43.3813 139.376 45.9291 139.376 49.0598C139.376 52.1946 136.828 54.7423 133.694 54.7423ZM133.694 36.6207C126.837 36.6207 121.254 42.2033 121.254 49.0598C121.254 55.9204 126.837 61.499 133.694 61.499C140.554 61.499 146.133 55.9204 146.133 49.0598C146.133 42.2033 140.554 36.6207 133.694 36.6207Z" fill="white"/>
<path d="M169.937 51.32C167.94 51.32 166.319 49.6987 166.319 47.702C166.319 45.7094 167.94 44.0841 169.937 44.0841C171.93 44.0841 173.551 45.7094 173.551 47.702C173.551 49.6987 171.93 51.32 169.937 51.32ZM169.937 37.3274C164.215 37.3274 159.558 41.9796 159.558 47.702C159.558 53.4245 164.215 58.0807 169.937 58.0807C175.656 58.0807 180.312 53.4245 180.312 47.702C180.312 41.9796 175.656 37.3274 169.937 37.3274Z" fill="white"/>
</svg>
